<svg width="1000" height="1295" viewBox="0 0 1000 1295" fill="none" xmlns="http://www.w3.org/2000/svg">
<g clip-path="url(#clip0_12655_5826)">
<path d="M1000 499.527C1000 775.781 775.781 999.054 500.473 999.054C225.166 999.054 0 775.781 0 499.527C0 223.273 224.219 0 499.527 0C774.834 0 1000 224.219 1000 499.527Z" fill="white"/>
<path d="M786.187 259.224C773.888 228.95 754.021 201.514 731.315 179.754C707.663 157.048 679.281 140.019 649.953 127.72C630.085 120.151 610.218 114.475 589.404 112.583C514.664 102.176 436.14 124.882 379.376 181.646C313.15 247.871 290.445 343.425 319.773 433.302V434.248C301.798 445.601 284.768 458.846 269.631 474.929C246.925 498.581 228.004 526.963 216.651 557.237C204.352 588.458 199.622 619.678 199.622 652.791C199.622 684.957 206.244 718.07 219.489 747.398C231.788 777.673 251.656 805.109 274.361 826.869C298.013 849.574 326.395 866.604 355.724 878.903C385.052 891.202 417.219 895.932 449.385 895.932C444.655 895.932 439.924 895.932 436.14 895.932C503.311 899.716 572.375 875.118 623.463 824.03C689.688 757.805 712.394 662.252 684.011 574.267C703.879 562.914 721.854 548.723 736.992 531.693C759.697 508.042 778.619 479.659 789.972 449.385C802.271 418.165 807.001 386.944 807.001 353.832C807.001 321.665 799.432 288.553 786.187 259.224ZM570.482 277.2C568.59 269.631 567.644 261.116 567.644 253.548C576.159 255.44 585.62 257.332 594.134 261.116C606.433 265.847 616.84 274.361 624.409 283.822C631.977 293.283 639.546 303.69 643.33 315.989C647.115 328.288 649.007 339.641 649.007 351.939C647.114 374.645 637.654 396.405 621.57 412.488L570.482 277.2ZM629.139 431.41C631.031 429.517 631.977 428.571 633.869 426.679C644.276 416.272 650.899 403.974 656.575 390.728C662.252 377.483 663.198 362.346 663.198 349.101C663.198 333.964 659.413 321.665 653.737 309.366C648.061 297.067 638.6 286.66 630.085 277.2C620.624 268.685 609.272 261.116 596.973 257.332C588.458 254.494 578.997 252.602 569.536 252.602C569.536 236.518 574.267 221.381 580.889 208.136C591.296 210.028 602.649 213.813 612.11 218.543C631.031 227.058 645.222 238.411 658.467 251.656C670.766 266.793 681.173 281.93 687.796 299.905C694.418 316.935 697.256 335.856 697.256 354.778C697.256 373.699 693.472 392.621 684.957 407.758C678.335 424.787 667.928 439.924 654.683 451.277C649.953 455.062 646.168 458.846 640.492 461.684L629.139 431.41ZM647.115 478.713C653.737 473.983 660.36 468.307 666.982 461.684C680.227 446.547 692.526 428.571 699.149 409.65C707.663 389.782 709.555 368.969 709.555 350.047C709.555 330.18 704.825 310.312 696.31 291.391C688.742 274.361 676.443 256.386 662.252 243.141C647.115 229.896 631.977 219.489 613.056 212.867C602.649 209.082 591.296 207.19 580.889 205.298C585.62 196.783 591.296 189.215 597.919 181.646C603.595 175.97 609.272 171.239 615.894 167.455C620.624 169.347 625.355 171.239 630.085 173.132C652.791 182.592 673.605 196.783 691.58 215.705C708.609 232.734 721.854 256.386 731.315 278.146C740.776 301.798 744.56 327.342 744.56 350.993C743.614 378.43 737.938 402.081 728.477 424.787C719.016 445.601 704.825 465.468 686.85 483.444C677.389 492.904 667.928 500.473 657.521 507.096L647.115 478.713ZM386.944 837.275C383.16 835.383 379.376 834.437 375.591 832.545C352.886 823.084 332.072 808.893 314.097 789.972C297.067 772.942 283.822 749.291 274.361 727.531C264.901 703.879 261.116 678.335 261.116 654.683C262.062 629.139 267.739 605.487 277.2 582.781C286.66 561.968 300.851 542.1 318.827 524.125C327.342 515.61 336.802 508.042 346.263 502.365L356.67 530.747C350.993 535.478 344.371 540.208 339.641 545.885C326.395 561.022 314.097 578.997 307.474 597.919C298.959 617.786 297.067 638.6 297.067 657.521C297.067 677.389 301.798 697.256 310.312 716.178C317.881 733.207 330.18 751.183 344.371 764.428C359.508 777.673 374.645 788.08 393.567 794.702C403.027 798.486 412.488 800.379 422.895 802.271C418.165 810.785 412.488 818.354 405.866 824.976C400.189 828.761 393.567 833.491 386.944 837.275ZM394.513 789.972C375.591 781.457 361.4 770.104 348.155 756.859C335.856 741.722 325.449 726.585 318.827 708.609C312.204 691.58 309.366 672.658 309.366 653.737C309.366 634.816 313.15 615.894 321.665 600.757C328.288 583.728 338.694 568.59 351.939 557.237C355.724 554.399 359.508 550.615 363.292 547.777L374.645 578.051C373.699 578.997 372.753 579.943 371.807 580.889C361.4 591.296 354.778 603.595 349.101 616.84C343.425 630.085 342.479 645.222 342.479 658.467C342.479 673.605 346.263 685.904 351.939 698.202C357.616 710.501 367.077 720.908 375.591 730.369C385.052 738.884 396.405 746.452 408.704 750.237C416.272 753.075 425.733 754.021 434.248 754.967C433.302 771.05 429.518 786.187 421.949 799.432C413.434 796.594 403.974 793.756 394.513 789.972ZM433.302 729.423C435.194 736.992 435.194 745.506 435.194 753.075C426.679 751.183 419.111 749.291 411.542 745.506C399.243 740.776 388.836 732.261 381.268 722.8C373.699 713.34 366.131 702.933 362.346 690.634C357.616 678.335 356.67 666.982 356.67 654.683C357.616 632.923 367.077 611.164 382.214 596.026L433.302 729.423ZM280.038 823.084C257.332 800.378 241.249 773.888 228.95 744.56C218.543 717.124 212.867 684.957 212.867 653.737C214.759 623.463 221.381 592.242 232.734 564.806C245.033 536.424 263.009 511.826 284.768 490.066C298.013 476.821 312.204 466.414 328.288 456.954L336.802 478.713C324.503 487.228 312.204 495.743 302.744 507.096C283.822 526.963 269.631 549.669 260.17 575.213C250.71 600.757 246.925 627.247 246.925 653.737C248.817 680.227 253.548 706.717 263.955 730.369C274.361 754.021 290.445 776.727 309.366 793.756C328.288 810.785 350.047 825.922 374.645 835.383C378.43 836.329 381.268 838.221 385.052 839.167C368.969 848.628 351.939 853.359 333.018 854.305C326.395 854.305 319.773 853.359 313.15 852.413C300.851 842.952 290.445 833.491 280.038 823.084ZM772.942 441.816C760.643 470.199 742.668 494.797 720.908 516.556C707.663 529.801 691.58 542.1 674.551 551.561L666.982 530.747C680.227 522.233 693.472 512.772 703.879 500.473C722.8 480.606 736.992 457.9 746.452 432.356C755.913 406.812 759.697 380.322 759.697 353.832C757.805 327.342 753.075 300.851 742.668 277.2C732.261 253.548 716.178 230.842 697.256 213.813C678.335 196.783 656.575 181.646 631.977 172.185C627.247 170.293 622.517 169.347 618.732 167.455C641.438 154.21 667.928 150.426 693.472 155.156C705.771 163.671 717.124 173.132 726.585 184.484C749.291 207.19 765.374 233.68 777.673 263.009C788.079 290.445 793.756 322.611 793.756 353.832C790.918 383.16 784.295 414.38 772.942 441.816Z" fill="#DD1438"/>
<path d="M34.0587 1288.55C19.8675 1284.77 8.51466 1279.09 0 1272.47L15.1372 1239.36C23.6518 1245.03 33.1126 1250.71 44.4655 1253.55C55.8184 1257.33 67.1712 1259.22 78.5241 1259.22C90.8231 1259.22 100.284 1257.33 106.906 1253.55C112.583 1249.76 116.367 1245.03 116.367 1238.41C116.367 1233.68 114.475 1229.9 110.691 1227.06C106.906 1224.22 102.176 1221.38 96.4995 1219.49C90.8231 1217.6 83.2545 1215.7 73.7938 1213.81C58.6566 1210.03 47.3037 1207.19 37.843 1203.41C28.3822 1199.62 20.8136 1193.95 14.1911 1186.38C7.56859 1178.81 3.7843 1168.4 3.7843 1155.16C3.7843 1143.8 6.62252 1133.4 13.245 1124.88C18.9215 1115.42 28.3822 1108.8 40.6812 1103.12C52.9801 1097.45 68.1173 1095.55 85.1466 1095.55C97.4456 1095.55 109.745 1097.45 121.097 1100.28C132.45 1103.12 142.857 1107.85 152.318 1112.58L138.127 1146.64C120.151 1136.23 102.176 1131.5 85.1466 1131.5C72.8477 1131.5 63.3869 1133.4 57.7105 1137.18C52.0341 1140.96 49.1958 1146.64 49.1958 1153.26C49.1958 1159.89 52.9801 1164.62 59.6027 1168.4C66.2252 1171.24 76.632 1175.02 90.8231 1177.86C105.96 1181.65 117.313 1184.48 126.774 1188.27C136.235 1192.05 143.803 1197.73 150.426 1204.35C157.048 1211.92 160.833 1222.33 160.833 1234.63C160.833 1245.98 157.994 1255.44 151.372 1264.9C144.749 1274.36 136.235 1280.98 123.936 1286.66C111.637 1292.34 96.4995 1294.23 79.4702 1294.23C63.3869 1294.23 48.2498 1292.34 34.0587 1288.55Z" fill="white"/>
<path d="M212.867 1271.52C197.729 1256.39 190.161 1234.63 190.161 1206.24V1098.39H234.626V1204.35C234.626 1238.41 248.817 1256.39 277.2 1256.39C291.391 1256.39 301.798 1252.6 309.366 1244.09C316.935 1235.57 320.719 1222.33 320.719 1205.3V1099.34H365.185V1207.19C365.185 1235.57 357.616 1257.33 342.479 1272.47C327.342 1287.61 305.582 1295.18 278.146 1295.18C249.764 1294.23 228.004 1286.66 212.867 1271.52Z" fill="white"/>
<path d="M526.017 1106.91C538.316 1112.58 548.723 1121.1 555.345 1131.5C561.968 1141.91 565.752 1154.21 565.752 1168.4C565.752 1182.59 561.968 1194.89 555.345 1205.3C548.723 1215.7 539.262 1224.22 526.017 1229.9C513.718 1235.57 498.581 1238.41 481.552 1238.41H442.763V1291.39H398.297V1099.34H481.552C498.581 1098.39 513.718 1101.23 526.017 1106.91ZM509.934 1193C516.556 1187.32 520.341 1178.81 520.341 1168.4C520.341 1157.99 516.556 1149.48 509.934 1143.8C503.311 1138.13 492.905 1135.29 479.659 1135.29H443.709V1202.46H479.659C491.958 1201.51 502.365 1198.68 509.934 1193Z" fill="white"/>
<path d="M719.962 1291.39L683.065 1237.46H681.173H642.384V1291.39H597.919V1099.34H681.173C698.203 1099.34 713.34 1102.18 725.639 1107.85C737.938 1113.53 747.398 1122.04 754.967 1132.45C761.589 1142.86 765.374 1155.16 765.374 1169.35C765.374 1183.54 761.589 1195.84 754.967 1206.24C748.344 1216.65 737.938 1224.22 725.639 1229.9L769.158 1291.39H719.962ZM708.609 1143.8C701.987 1138.13 691.58 1135.29 678.335 1135.29H642.384V1202.46H678.335C691.58 1202.46 701.987 1199.62 708.609 1193.95C715.232 1188.27 719.016 1179.75 719.016 1169.35C719.016 1157.99 715.232 1149.48 708.609 1143.8Z" fill="white"/>
<path d="M935.667 1249.76H846.736L829.707 1291.39H784.295L870.388 1099.34H914.853L1000.95 1291.39H954.588L935.667 1249.76ZM921.476 1215.7L891.201 1141.91L860.927 1215.7H921.476Z" fill="white"/>
</g>
<defs>
<clipPath id="clip0_12655_5826">
<rect width="1000" height="1294.23" fill="white"/>
</clipPath>
</defs>
</svg>
